<svg width="125" height="60" viewBox="0 0 125 60" fill="none" xmlns="http://www.w3.org/2000/svg">
<rect width="125" height="32" fill="black"/>
<path d="M25.8354 21V13.884H23.1114V12.36H30.1914V13.884H27.4674V21H25.8354ZM40.7556 21V12.36H42.3876V15.912H46.2516V12.36H47.8836V21H46.2516V17.436H42.3876V21H40.7556ZM59.1681 21V12.36H64.8081V13.884H60.8001V15.732H64.0881V17.256H60.8001V19.476H64.8081V21H59.1681ZM75.8463 21V12.36H77.3103L80.1663 18.096L83.0223 12.36H84.4863V21H82.9623V15.84L80.4543 21H79.8783L77.3703 15.84V21H75.8463ZM95.7705 21V12.36H101.41V13.884H97.4025V15.732H100.69V17.256H97.4025V19.476H101.41V21H95.7705Z" fill="white"/>
<line y1="38" x2="125" y2="38" stroke="black" stroke-width="2"/>
<path d="M36.5262 57.15C36.0228 57.15 35.5695 57.0667 35.1662 56.9C34.7662 56.73 34.4345 56.49 34.1712 56.18C33.9112 55.87 33.7412 55.5017 33.6612 55.075L34.4112 54.95C34.5312 55.4167 34.7845 55.7833 35.1712 56.05C35.5578 56.3133 36.0195 56.445 36.5562 56.445C36.9095 56.445 37.2262 56.39 37.5062 56.28C37.7862 56.1667 38.0062 56.0067 38.1662 55.8C38.3262 55.5933 38.4062 55.3483 38.4062 55.065C38.4062 54.8783 38.3728 54.72 38.3062 54.59C38.2395 54.4567 38.1512 54.3467 38.0412 54.26C37.9312 54.1733 37.8112 54.1017 37.6812 54.045C37.5512 53.985 37.4245 53.9367 37.3012 53.9L35.4762 53.355C35.2562 53.2917 35.0528 53.2117 34.8662 53.115C34.6795 53.015 34.5162 52.8967 34.3762 52.76C34.2395 52.62 34.1328 52.4567 34.0562 52.27C33.9795 52.0833 33.9412 51.87 33.9412 51.63C33.9412 51.2233 34.0478 50.8717 34.2612 50.575C34.4745 50.2783 34.7662 50.05 35.1362 49.89C35.5062 49.73 35.9278 49.6517 36.4012 49.655C36.8812 49.655 37.3095 49.74 37.6862 49.91C38.0662 50.08 38.3795 50.3233 38.6262 50.64C38.8728 50.9533 39.0362 51.325 39.1162 51.755L38.3462 51.895C38.2962 51.5817 38.1812 51.31 38.0012 51.08C37.8212 50.85 37.5912 50.6733 37.3112 50.55C37.0345 50.4233 36.7295 50.3583 36.3962 50.355C36.0728 50.355 35.7845 50.41 35.5312 50.52C35.2812 50.6267 35.0828 50.7733 34.9362 50.96C34.7895 51.1467 34.7162 51.36 34.7162 51.6C34.7162 51.8433 34.7828 52.0383 34.9162 52.185C35.0528 52.3317 35.2195 52.4467 35.4162 52.53C35.6162 52.6133 35.8095 52.6817 35.9962 52.735L37.4062 53.15C37.5528 53.19 37.7245 53.2483 37.9212 53.325C38.1212 53.3983 38.3145 53.505 38.5012 53.645C38.6912 53.7817 38.8478 53.9617 38.9712 54.185C39.0945 54.4083 39.1562 54.6917 39.1562 55.035C39.1562 55.3683 39.0895 55.6667 38.9562 55.93C38.8262 56.1933 38.6412 56.415 38.4012 56.595C38.1645 56.775 37.8862 56.9117 37.5662 57.005C37.2495 57.1017 36.9028 57.15 36.5262 57.15ZM48.1883 57V49.8H48.9233V53.045H52.9033V49.8H53.6333V57H52.9033V53.75H48.9233V57H48.1883ZM63.134 57V49.8H63.869V57H63.134ZM73.368 57V49.8H77.503V50.535H74.103V53.035H76.903V53.765H74.103V57H73.368ZM88.322 57V50.505H85.807V49.8H91.572V50.505H89.057V57H88.322Z" fill="black"/>
</svg>
